<?xml version="1.0" standalone="no"?>
<!DOCTYPE svg PUBLIC "-//W3C//DTD SVG 20010904//EN"
 "http://www.w3.org/TR/2001/REC-SVG-20010904/DTD/svg10.dtd">
<svg version="1.0" xmlns="http://www.w3.org/2000/svg"
 width="2520.000000pt" height="2520.000000pt" viewBox="0 0 2520.000000 2520.000000"
 preserveAspectRatio="xMidYMid meet">
<metadata>
Created by potrace 1.11, written by Peter Selinger 2001-2013
</metadata>
<g transform="translate(0.000000,2520.000000) scale(0.100000,-0.100000)"
fill="#000000" stroke="none">
<path d="M10520 16735 l0 -1385 -3477 0 c-1913 0 -3509 -3 -3548 -6 -374 -28
-652 -151 -901 -399 -167 -167 -274 -340 -342 -555 -61 -194 -57 -32 -57
-2520 0 -2160 1 -2290 18 -2373 37 -185 109 -357 213 -512 186 -279 496 -480
853 -553 82 -16 566 -17 9321 -17 8959 0 9238 1 9319 19 247 54 457 159 637
318 189 167 335 393 402 623 58 196 57 177 57 1110 0 791 -1 867 -18 950 -55
273 -181 508 -382 711 -240 243 -501 374 -825 414 -57 7 -1221 10 -3597 10
l-3513 0 0 695 0 695 4170 0 4170 0 0 695 0 695 -4252 -3 c-3989 -3 -4258 -4
-4338 -20 -296 -61 -526 -181 -725 -381 -216 -217 -346 -475 -390 -774 -14
-93 -15 -222 -12 -962 3 -838 4 -857 25 -952 63 -277 180 -496 362 -679 236
-237 539 -368 910 -393 41 -3 1640 -6 3553 -6 l3477 0 0 -695 0 -695 -9030 0
-9030 0 0 2085 0 2085 3475 0 3475 0 0 -1390 0 -1390 695 0 695 0 0 3470 0
3470 -695 0 -695 0 0 -1385z"/>
</g>
</svg>
