<?xml version="1.0" standalone="no"?>
<!DOCTYPE svg PUBLIC "-//W3C//DTD SVG 20010904//EN"
 "http://www.w3.org/TR/2001/REC-SVG-20010904/DTD/svg10.dtd">
<svg version="1.0" xmlns="http://www.w3.org/2000/svg"
 width="192.000000pt" height="192.000000pt" viewBox="0 0 192.000000 192.000000"
 preserveAspectRatio="xMidYMid meet">
<metadata>
Created by potrace 1.11, written by Peter Selinger 2001-2013
</metadata>
<g transform="translate(0.000000,192.000000) scale(0.100000,-0.100000)"
fill="#000000" stroke="none">
<path d="M800 1275 l0 -105 -276 0 c-286 0 -303 -2 -336 -44 -15 -18 -18 -47
-18 -219 0 -117 4 -206 10 -218 27 -50 18 -49 780 -49 504 0 718 3 733 11 47
24 57 48 57 146 0 88 -1 94 -29 125 l-29 33 -286 3 -286 3 0 49 0 50 315 0
315 0 0 55 0 55 -327 0 c-361 0 -366 -1 -395 -60 -22 -43 -24 -147 -4 -195 26
-62 43 -65 351 -65 l275 0 0 -50 0 -50 -690 0 -690 0 0 155 0 155 265 0 265 0
0 -105 0 -105 55 0 55 0 0 265 0 265 -55 0 -55 0 0 -105z"/>
</g>
</svg>
